<svg width="69" height="22" viewBox="0 0 69 22" fill="none" xmlns="http://www.w3.org/2000/svg">
<path d="M15.2637 1.4043L14.4434 7.58594C14.1602 7.50781 13.877 7.4541 13.5938 7.4248C13.3105 7.39551 13.0273 7.38086 12.7441 7.38086C12.0215 7.38086 11.333 7.47852 10.6787 7.67383C10.0244 7.85938 9.44336 8.14746 8.93555 8.53809C8.4375 8.92871 8.03711 9.41699 7.73438 10.0029C7.44141 10.5889 7.29492 11.2773 7.29492 12.0684C7.29492 12.5762 7.37305 13.0156 7.5293 13.3867C7.69531 13.7578 7.9248 14.0654 8.21777 14.3096C8.51074 14.5537 8.85742 14.7344 9.25781 14.8516C9.6582 14.9688 10.0977 15.0273 10.5762 15.0273C10.9375 15.0273 11.3135 14.9883 11.7041 14.9102C12.0947 14.832 12.4805 14.7295 12.8613 14.6025C13.2422 14.4756 13.6133 14.3291 13.9746 14.1631C14.3359 13.9971 14.668 13.8262 14.9707 13.6504L14.3848 20.5352C14.0039 20.7305 13.5889 20.9062 13.1396 21.0625C12.7002 21.209 12.2461 21.3408 11.7773 21.458C11.3086 21.5654 10.8398 21.6484 10.3711 21.707C9.90234 21.7656 9.45312 21.7949 9.02344 21.7949C7.7832 21.7949 6.62598 21.5654 5.55176 21.1064C4.47754 20.6475 3.54492 20.0176 2.75391 19.2168C1.96289 18.416 1.33789 17.4736 0.878906 16.3896C0.429688 15.2959 0.205078 14.1191 0.205078 12.8594C0.205078 11.1895 0.444336 9.61719 0.922852 8.14258C1.40137 6.6582 2.10449 5.35938 3.03223 4.24609C3.95996 3.13281 5.10742 2.25391 6.47461 1.60938C7.85156 0.964844 9.43359 0.642578 11.2207 0.642578C11.8945 0.642578 12.583 0.696289 13.2861 0.803711C13.999 0.911133 14.6582 1.11133 15.2637 1.4043Z" fill="black"/>
<path d="M34.6582 20.7402L27.3926 21.6777L26.5137 18.3672H23.1738L22.4414 21.6777L14.9707 20.9453L20.8008 1.43359L28.9453 1.02344L34.6582 20.7402ZM25.9863 13.8848L24.873 8.78711L23.7891 13.8848H25.9863Z" fill="black"/>
<path d="M52.1338 7.87891C52.1338 8.64062 52.0654 9.33398 51.9287 9.95898C51.8018 10.5742 51.5967 11.1406 51.3135 11.6582C51.0303 12.1758 50.6641 12.6543 50.2148 13.0938C49.7656 13.5332 49.2236 13.9531 48.5889 14.3535L52.0752 20.5645L45.4834 21.8535L43.2275 15.6133L41.4111 15.6719L41.1475 21.7656H34.8486C34.8975 19.5391 34.9414 17.3223 34.9805 15.1152C35.0293 12.9082 35.083 10.6914 35.1416 8.46484C35.1611 7.3418 35.1807 6.22852 35.2002 5.125C35.2197 4.02148 35.2588 2.9082 35.3174 1.78516C36.001 1.53125 36.6748 1.32129 37.3389 1.15527C38.0029 0.989258 38.667 0.862305 39.3311 0.774414C40.0049 0.676758 40.6836 0.613281 41.3672 0.583984C42.0605 0.544922 42.7686 0.525391 43.4912 0.525391C44.6045 0.525391 45.6787 0.681641 46.7139 0.994141C47.7588 1.29688 48.6816 1.75586 49.4824 2.37109C50.2832 2.98633 50.9229 3.75293 51.4014 4.6709C51.8896 5.58887 52.1338 6.6582 52.1338 7.87891ZM45.5713 8.34766C45.5713 7.9375 45.5127 7.56152 45.3955 7.21973C45.2881 6.87793 45.1221 6.58496 44.8975 6.34082C44.6826 6.08691 44.4092 5.8916 44.0771 5.75488C43.7549 5.6084 43.374 5.53516 42.9346 5.53516C42.7393 5.53516 42.5488 5.5498 42.3633 5.5791C42.1777 5.59863 41.9971 5.63281 41.8213 5.68164L41.5869 11.1309H41.9385C42.3584 11.1309 42.7832 11.0771 43.2129 10.9697C43.6523 10.8623 44.043 10.6963 44.3848 10.4717C44.7363 10.2471 45.0195 9.95898 45.2344 9.60742C45.459 9.25586 45.5713 8.83594 45.5713 8.34766Z" fill="black"/>
<path d="M68.6426 1.05273L68.4961 7.26367L64.1309 7.43945L63.0176 21.3262L56.8359 21.6484L56.8652 7.76172L52.5 7.99609L52.6758 1.08203L68.6426 1.05273Z" fill="black"/>
</svg>
