<svg width="66" height="23" viewBox="0 0 66 23" fill="none" xmlns="http://www.w3.org/2000/svg">
<path d="M15.7363 9.92969C15.7363 10.5059 15.7363 11.0771 15.7363 11.6436C15.7363 12.21 15.707 12.7812 15.6484 13.3574C15.541 14.5781 15.2773 15.7354 14.8574 16.8291C14.4375 17.9131 13.8662 18.8652 13.1436 19.6855C12.4307 20.5059 11.5615 21.1553 10.5361 21.6338C9.51074 22.1123 8.33398 22.3516 7.00586 22.3516C6.48828 22.3516 5.94629 22.3076 5.37988 22.2197C4.82324 22.1318 4.2666 22 3.70996 21.8242C3.16309 21.6484 2.63574 21.4336 2.12793 21.1797C1.62988 20.916 1.18555 20.6133 0.794922 20.2715L1.70312 14.207C2.2793 14.7637 2.91895 15.2178 3.62207 15.5693C4.3252 15.9111 5.0918 16.082 5.92188 16.082C6.45898 16.082 6.91309 16.0039 7.28418 15.8477C7.65527 15.6914 7.96289 15.4766 8.20703 15.2031C8.45117 14.9297 8.6416 14.6123 8.77832 14.251C8.9248 13.8799 9.02734 13.4893 9.08594 13.0791C9.1543 12.6592 9.19336 12.2295 9.20312 11.79C9.22266 11.3506 9.23242 10.916 9.23242 10.4863C9.23242 8.93359 9.1543 7.39062 8.99805 5.85742C8.8418 4.31445 8.70508 2.77148 8.58789 1.22852L15.2969 0.789062C15.5898 3.83594 15.7363 6.88281 15.7363 9.92969Z" fill="black"/>
<path d="M35.1455 11.6582C35.1455 12.5469 35.043 13.4062 34.8379 14.2363C34.6328 15.0566 34.335 15.8281 33.9443 16.5508C33.5635 17.2734 33.0947 17.9375 32.5381 18.543C31.9912 19.1387 31.3711 19.6514 30.6777 20.0811C29.9941 20.5107 29.2471 20.8477 28.4365 21.0918C27.626 21.3262 26.7666 21.4434 25.8584 21.4434C24.9795 21.4434 24.1396 21.3311 23.3389 21.1064C22.5479 20.8818 21.8057 20.5693 21.1123 20.1689C20.4189 19.7588 19.7891 19.2705 19.2227 18.7041C18.666 18.1279 18.1875 17.4932 17.7871 16.7998C17.3965 16.0967 17.0889 15.3447 16.8643 14.5439C16.6494 13.7432 16.542 12.9082 16.542 12.0391C16.542 11.1895 16.6445 10.3594 16.8496 9.54883C17.0547 8.72852 17.3477 7.95703 17.7285 7.23438C18.1191 6.51172 18.5879 5.84766 19.1348 5.24219C19.6816 4.63672 20.292 4.11426 20.9658 3.6748C21.6494 3.23535 22.3867 2.89355 23.1777 2.64941C23.9688 2.40527 24.8037 2.2832 25.6826 2.2832C27.0986 2.2832 28.3877 2.50293 29.5498 2.94238C30.7217 3.38184 31.7178 4.01172 32.5381 4.83203C33.3682 5.64258 34.0078 6.62891 34.457 7.79102C34.916 8.94336 35.1455 10.2324 35.1455 11.6582ZM28.6416 12.0391C28.6416 11.6191 28.5781 11.2139 28.4512 10.8232C28.334 10.4229 28.1582 10.0713 27.9238 9.76855C27.6895 9.45605 27.3965 9.20703 27.0449 9.02148C26.7031 8.82617 26.3076 8.72852 25.8584 8.72852C25.3994 8.72852 24.9893 8.81152 24.6279 8.97754C24.2666 9.14355 23.9541 9.37305 23.6904 9.66602C23.4365 9.94922 23.2412 10.2861 23.1045 10.6768C22.9678 11.0576 22.8994 11.4629 22.8994 11.8926C22.8994 12.3027 22.958 12.7129 23.0752 13.123C23.1924 13.5332 23.3682 13.9043 23.6025 14.2363C23.8369 14.5684 24.125 14.8369 24.4668 15.042C24.8184 15.2471 25.2236 15.3496 25.6826 15.3496C26.1416 15.3496 26.5518 15.2617 26.9131 15.0859C27.2842 14.9004 27.5967 14.6562 27.8506 14.3535C28.1045 14.041 28.2998 13.6846 28.4365 13.2842C28.5732 12.8838 28.6416 12.4688 28.6416 12.0391Z" fill="black"/>
<path d="M44.0811 1.375L42.4697 21.3262L36.2881 21.6484V1.78516L44.0811 1.375Z" fill="black"/>
<path d="M65.0283 0.994141L63.9736 20.8574L56.2979 21.5605L52.1963 10.9258L51.5518 21.7656H44.96L45.4873 0.994141L52.8115 0.642578L57.8799 11.1895L58.1143 1.22852L65.0283 0.994141Z" fill="black"/>
</svg>
