<svg width="301" height="66" viewBox="0 0 301 66" fill="none" xmlns="http://www.w3.org/2000/svg">
<path fill-rule="evenodd" clip-rule="evenodd" d="M130.661 58.9648C145.02 62.8123 159.779 54.291 163.627 39.9321C167.474 25.5731 158.953 10.8139 144.594 6.96646C130.235 3.11899 115.476 11.6402 111.628 25.9992C107.781 40.3581 116.302 55.1173 130.661 58.9648ZM131.532 55.7149C140.506 58.1196 150.51 49.8837 153.877 37.3197C157.243 24.7556 152.697 12.621 143.723 10.2164C134.749 7.81168 124.744 16.0475 121.378 28.6116C118.011 41.1757 122.557 53.3102 131.532 55.7149Z" fill="#A4D232"/>
<ellipse cx="140.945" cy="19.2832" rx="5.04681" ry="7.06553" transform="rotate(15 140.945 19.2832)" fill="#F28280"/>
<path d="M25.535 33.1854C25.535 34.3814 25.397 35.538 25.121 36.6551C24.845 37.7591 24.4441 38.7974 23.9184 39.7699C23.4058 40.7425 22.775 41.6362 22.0258 42.451C21.2899 43.2528 20.4553 43.9427 19.5222 44.521C18.6022 45.0993 17.5967 45.5527 16.5059 45.8813C15.415 46.1967 14.2585 46.3544 13.0362 46.3544C11.8534 46.3544 10.7231 46.2033 9.64539 45.901C8.58083 45.5987 7.58198 45.1782 6.64885 44.6393C5.71571 44.0873 4.86801 43.4302 4.10573 42.6679C3.35659 41.8925 2.7126 41.0382 2.17375 40.1051C1.64804 39.1588 1.23404 38.1468 0.931757 37.0691C0.642617 35.9914 0.498047 34.8677 0.498047 33.698C0.498047 32.5546 0.636046 31.4374 0.912043 30.3466C1.18804 29.2426 1.58232 28.2043 2.09489 27.2318C2.6206 26.2592 3.25145 25.3655 3.98744 24.5506C4.72344 23.7358 5.54486 23.0327 6.45171 22.4412C7.3717 21.8498 8.36397 21.3898 9.42853 21.0612C10.4931 20.7327 11.6168 20.5684 12.7996 20.5684C14.7053 20.5684 16.4402 20.8641 18.0042 21.4555C19.5813 22.047 20.9219 22.8947 22.0258 23.9986C23.143 25.0895 24.0038 26.4169 24.6084 27.9809C25.2261 29.5317 25.535 31.2666 25.535 33.1854ZM16.7819 33.698C16.7819 33.1328 16.6965 32.5874 16.5256 32.0617C16.3679 31.5229 16.1313 31.0497 15.8159 30.6423C15.5005 30.2217 15.1062 29.8866 14.6331 29.6369C14.1731 29.374 13.6408 29.2426 13.0362 29.2426C12.4185 29.2426 11.8665 29.3543 11.3802 29.5777C10.8939 29.8012 10.4734 30.11 10.1185 30.5043C9.77682 30.8854 9.51396 31.3389 9.32996 31.8646C9.14597 32.3771 9.05397 32.9226 9.05397 33.5008C9.05397 34.0528 9.13282 34.6048 9.29054 35.1568C9.44825 35.7088 9.68482 36.2082 10.0002 36.6551C10.3157 37.102 10.7034 37.4634 11.1634 37.7394C11.6365 38.0154 12.1819 38.1534 12.7996 38.1534C13.4174 38.1534 13.9693 38.0351 14.4556 37.7985C14.9551 37.5488 15.3756 37.2202 15.7173 36.8128C16.059 36.3922 16.3219 35.9125 16.5059 35.3737C16.6899 34.8348 16.7819 34.2763 16.7819 33.698Z" fill="black"/>
<path d="M44.2436 35.8665L43.4156 44.6196L26.8164 45.9207C26.8952 41.3339 26.9807 36.7734 27.0727 32.2391C27.1778 27.7049 27.3027 23.1444 27.4472 18.5576H37.6986C37.3963 21.4358 37.1071 24.3141 36.8311 27.1923C36.5551 30.0574 36.358 32.9488 36.2397 35.8665C36.8574 35.8928 37.4686 35.906 38.0731 35.906C38.6777 35.906 39.2888 35.906 39.9065 35.906C40.6425 35.906 41.3654 35.8994 42.0751 35.8863C42.7848 35.8731 43.5076 35.8665 44.2436 35.8665Z" fill="black"/>
<path d="M55.8158 19.3461L53.6473 46.1967L45.3279 46.6304V19.8981L55.8158 19.3461Z" fill="black"/>
<path d="M81.3061 19.4644L74.0908 46.9064L64.3126 47.4584L55.4412 19.7404L64.7857 18.873L68.5708 35.0385L72.2377 18.873L81.3061 19.4644Z" fill="black"/>
<path d="M100.626 18.6758C100.547 19.9113 100.475 21.1335 100.409 22.3427C100.343 23.5518 100.258 24.7741 100.153 26.0095L91.794 26.4432L91.5969 28.9272H97.4717L97.038 35.0385L91.1238 35.2357L90.9266 38.1139H99.2854C99.2065 39.5596 99.1211 40.9988 99.0291 42.4313C98.9503 43.8507 98.878 45.2767 98.8123 46.7093L81.8187 47.1036L82.4496 18.6758H100.626Z" fill="black"/>
<path d="M200.784 20.4107L189.941 35.5511L189.429 47.8921H180.084L180.321 35.63L174.683 21.0021L184.737 19.7404L186.314 28.2569L191.321 19.7404L200.784 20.4107Z" fill="black"/>
<path d="M221.74 33.1854C221.74 34.3814 221.602 35.538 221.326 36.6551C221.05 37.7591 220.649 38.7974 220.124 39.7699C219.611 40.7425 218.98 41.6362 218.231 42.451C217.495 43.2527 216.661 43.9427 215.727 44.521C214.807 45.0993 213.802 45.5527 212.711 45.8813C211.62 46.1967 210.464 46.3544 209.241 46.3544C208.059 46.3544 206.928 46.2033 205.851 45.901C204.786 45.5987 203.787 45.1782 202.854 44.6393C201.921 44.0873 201.073 43.4302 200.311 42.6679C199.562 41.8925 198.918 41.0382 198.379 40.1051C197.853 39.1588 197.439 38.1468 197.137 37.0691C196.848 35.9914 196.703 34.8677 196.703 33.698C196.703 32.5546 196.841 31.4374 197.117 30.3466C197.393 29.2426 197.788 28.2043 198.3 27.2318C198.826 26.2592 199.457 25.3655 200.193 24.5506C200.929 23.7358 201.75 23.0326 202.657 22.4412C203.577 21.8498 204.569 21.3898 205.634 21.0612C206.698 20.7327 207.822 20.5684 209.005 20.5684C210.911 20.5684 212.645 20.8641 214.209 21.4555C215.787 22.0469 217.127 22.8946 218.231 23.9986C219.348 25.0895 220.209 26.4169 220.814 27.9809C221.431 29.5317 221.74 31.2666 221.74 33.1854ZM212.987 33.698C212.987 33.1328 212.902 32.5874 212.731 32.0617C212.573 31.5229 212.337 31.0497 212.021 30.6423C211.706 30.2217 211.311 29.8866 210.838 29.6369C210.378 29.374 209.846 29.2426 209.241 29.2426C208.624 29.2426 208.072 29.3543 207.585 29.5777C207.099 29.8012 206.679 30.11 206.324 30.5043C205.982 30.8854 205.719 31.3389 205.535 31.8646C205.351 32.3771 205.259 32.9226 205.259 33.5008C205.259 34.0528 205.338 34.6048 205.496 35.1568C205.653 35.7088 205.89 36.2082 206.205 36.6551C206.521 37.1019 206.909 37.4634 207.369 37.7394C207.842 38.0154 208.387 38.1534 209.005 38.1534C209.623 38.1534 210.175 38.0351 210.661 37.7985C211.16 37.5488 211.581 37.2202 211.923 36.8128C212.264 36.3922 212.527 35.9125 212.711 35.3737C212.895 34.8348 212.987 34.2763 212.987 33.698Z" fill="black"/>
<path d="M246.698 25.1815C246.698 26.154 246.652 27.2252 246.56 28.3949C246.468 29.5646 246.317 30.7737 246.107 32.0223C245.897 33.2708 245.621 34.5391 245.279 35.8271C244.95 37.1019 244.536 38.3308 244.037 39.5136C243.537 40.6965 242.953 41.807 242.282 42.8453C241.625 43.8705 240.863 44.7707 239.995 45.5462C239.141 46.3084 238.182 46.9064 237.117 47.3401C236.053 47.787 234.87 48.0104 233.569 48.0104C232.044 48.0104 230.717 47.7607 229.586 47.2613C228.469 46.775 227.51 46.1179 226.708 45.2899C225.906 44.4487 225.249 43.4762 224.737 42.3722C224.224 41.255 223.823 40.0788 223.534 38.8434C223.245 37.5948 223.041 36.3265 222.923 35.0385C222.818 33.7374 222.765 32.4888 222.765 31.2929C222.765 29.4529 222.857 27.6195 223.041 25.7926C223.225 23.9526 223.488 22.1192 223.83 20.2924L233.056 20.6472C232.701 22.7107 232.392 24.7872 232.13 26.8769C231.88 28.9535 231.755 31.0431 231.755 33.146C231.755 33.3694 231.762 33.7045 231.775 34.1514C231.801 34.5851 231.84 35.078 231.893 35.63C231.946 36.1688 232.018 36.7274 232.11 37.3057C232.215 37.8708 232.353 38.3899 232.524 38.8631C232.695 39.3362 232.898 39.7239 233.135 40.0262C233.385 40.3285 233.674 40.4796 234.002 40.4796C234.383 40.4796 234.725 40.3022 235.027 39.9473C235.33 39.5794 235.593 39.0931 235.816 38.4885C236.053 37.8839 236.256 37.1874 236.427 36.3988C236.598 35.6102 236.743 34.7888 236.861 33.9345C236.979 33.0803 237.071 32.226 237.137 31.3717C237.216 30.5174 237.275 29.7223 237.314 28.9863C237.367 28.2503 237.4 27.5997 237.413 27.0346C237.426 26.4695 237.433 26.0489 237.433 25.7729C237.433 24.7478 237.413 23.7292 237.373 22.7172C237.347 21.6921 237.301 20.6735 237.235 19.6615H246.462C246.619 21.4752 246.698 23.3152 246.698 25.1815Z" fill="black"/>
<path d="M275.087 18.8335L273.667 45.5659L263.337 46.5121L257.817 32.1997L256.95 46.7881H248.078L248.788 18.8335L258.645 18.3604L265.466 32.5546L265.781 19.149L275.087 18.8335Z" fill="black"/>
<path d="M300.498 43.0819C299.88 43.8573 299.118 44.5342 298.211 45.1124C297.304 45.6907 296.332 46.1704 295.293 46.5516C294.255 46.9327 293.191 47.2153 292.1 47.3993C291.009 47.5964 289.971 47.695 288.985 47.695C287.079 47.695 285.325 47.3533 283.721 46.6699C282.118 45.9864 280.731 45.0467 279.562 43.8507C278.405 42.6416 277.498 41.2222 276.841 39.5925C276.184 37.9628 275.855 36.2082 275.855 34.3288C275.855 32.8963 276.02 31.4966 276.348 30.1297C276.677 28.7497 277.143 27.4552 277.748 26.246C278.366 25.0238 279.115 23.9066 279.995 22.8946C280.876 21.8695 281.875 20.989 282.992 20.253C284.109 19.517 285.331 18.9453 286.659 18.5378C287.986 18.1304 289.406 17.9267 290.917 17.9267C291.482 17.9267 292.087 17.953 292.731 18.0056C293.375 18.045 294.012 18.1238 294.643 18.2421C295.287 18.3473 295.911 18.4984 296.516 18.6955C297.12 18.8927 297.672 19.1358 298.172 19.425L297.62 26.9558C296.884 26.6798 296.121 26.4958 295.333 26.4038C294.557 26.2986 293.795 26.246 293.046 26.246C291.995 26.246 291.009 26.4103 290.089 26.7389C289.182 27.0543 288.387 27.5143 287.704 28.1189C287.033 28.7235 286.501 29.4594 286.107 30.3269C285.712 31.1943 285.515 32.1734 285.515 33.2643C285.515 33.9477 285.607 34.6114 285.791 35.2554C285.975 35.8862 286.251 36.4514 286.619 36.9508C287 37.4371 287.467 37.8314 288.019 38.1336C288.584 38.4359 289.235 38.5871 289.971 38.5871C290.47 38.5871 290.983 38.5214 291.508 38.3899C292.047 38.2585 292.507 38.0351 292.888 37.7197L292.967 36.182L288.236 36.1031L288.472 30.1889C290.431 30.1232 292.389 30.0706 294.347 30.0312C296.305 29.9786 298.277 29.9129 300.261 29.834L300.498 43.0819Z" fill="black"/>
</svg>
