<svg width="123" height="23" viewBox="0 0 123 23" fill="none" xmlns="http://www.w3.org/2000/svg">
<path d="M17.8125 7.9082C17.8125 8.85547 17.6709 9.69531 17.3877 10.4277C17.1045 11.1602 16.7139 11.7998 16.2158 12.3467C15.7275 12.8936 15.1514 13.3574 14.4873 13.7383C13.8232 14.1191 13.1104 14.4316 12.3486 14.6758C11.5967 14.9102 10.8154 15.0859 10.0049 15.2031C9.19434 15.3105 8.39844 15.3691 7.61719 15.3789V22.2051H0.791016C0.791016 19.9688 0.795898 17.7422 0.805664 15.5254C0.81543 13.3086 0.830078 11.0723 0.849609 8.81641C0.869141 7.625 0.874023 6.43359 0.864258 5.24219C0.854492 4.05078 0.878906 2.84961 0.9375 1.63867C2.1875 1.26758 3.4375 0.989258 4.6875 0.803711C5.9375 0.618164 7.22656 0.525391 8.55469 0.525391C9.30664 0.525391 10.0586 0.588867 10.8105 0.71582C11.5625 0.833008 12.2803 1.02344 12.9639 1.28711C13.6572 1.55078 14.2969 1.88281 14.8828 2.2832C15.4785 2.67383 15.9912 3.14258 16.4209 3.68945C16.8506 4.23633 17.1875 4.86133 17.4316 5.56445C17.6855 6.25781 17.8125 7.03906 17.8125 7.9082ZM11.3086 8.40625C11.3086 7.77148 11.1133 7.27832 10.7227 6.92676C10.3418 6.56543 9.84375 6.38477 9.22852 6.38477C9.02344 6.38477 8.80859 6.4043 8.58398 6.44336C8.36914 6.47266 8.16406 6.51172 7.96875 6.56055L7.79297 10.8379C7.92969 10.8574 8.06152 10.8672 8.18848 10.8672C8.31543 10.8672 8.44727 10.8672 8.58398 10.8672C8.93555 10.8672 9.27246 10.8086 9.59473 10.6914C9.92676 10.5742 10.2197 10.4082 10.4736 10.1934C10.7275 9.96875 10.9277 9.70996 11.0742 9.41699C11.2305 9.11426 11.3086 8.77734 11.3086 8.40625Z" fill="black"/>
<path d="M35.7861 7.87891C35.7861 8.64062 35.7178 9.33398 35.5811 9.95898C35.4541 10.5742 35.249 11.1406 34.9658 11.6582C34.6826 12.1758 34.3164 12.6543 33.8672 13.0938C33.418 13.5332 32.876 13.9531 32.2412 14.3535L35.7275 20.5645L29.1357 21.8535L26.8799 15.6133L25.0635 15.6719L24.7998 21.7656H18.501C18.5498 19.5391 18.5938 17.3223 18.6328 15.1152C18.6816 12.9082 18.7354 10.6914 18.7939 8.46484C18.8135 7.3418 18.833 6.22852 18.8525 5.125C18.8721 4.02148 18.9111 2.9082 18.9697 1.78516C19.6533 1.53125 20.3271 1.32129 20.9912 1.15527C21.6553 0.989258 22.3193 0.862305 22.9834 0.774414C23.6572 0.676758 24.3359 0.613281 25.0195 0.583984C25.7129 0.544922 26.4209 0.525391 27.1436 0.525391C28.2568 0.525391 29.3311 0.681641 30.3662 0.994141C31.4111 1.29688 32.334 1.75586 33.1348 2.37109C33.9355 2.98633 34.5752 3.75293 35.0537 4.6709C35.542 5.58887 35.7861 6.6582 35.7861 7.87891ZM29.2236 8.34766C29.2236 7.9375 29.165 7.56152 29.0479 7.21973C28.9404 6.87793 28.7744 6.58496 28.5498 6.34082C28.335 6.08691 28.0615 5.8916 27.7295 5.75488C27.4072 5.6084 27.0264 5.53516 26.5869 5.53516C26.3916 5.53516 26.2012 5.5498 26.0156 5.5791C25.8301 5.59863 25.6494 5.63281 25.4736 5.68164L25.2393 11.1309H25.5908C26.0107 11.1309 26.4355 11.0771 26.8652 10.9697C27.3047 10.8623 27.6953 10.6963 28.0371 10.4717C28.3887 10.2471 28.6719 9.95898 28.8867 9.60742C29.1113 9.25586 29.2236 8.83594 29.2236 8.34766Z" fill="black"/>
<path d="M54.7119 11.6582C54.7119 12.5469 54.6094 13.4062 54.4043 14.2363C54.1992 15.0566 53.9014 15.8281 53.5107 16.5508C53.1299 17.2734 52.6611 17.9375 52.1045 18.543C51.5576 19.1387 50.9375 19.6514 50.2441 20.0811C49.5605 20.5107 48.8135 20.8477 48.0029 21.0918C47.1924 21.3262 46.333 21.4434 45.4248 21.4434C44.5459 21.4434 43.7061 21.3311 42.9053 21.1064C42.1143 20.8818 41.3721 20.5693 40.6787 20.1689C39.9854 19.7588 39.3555 19.2705 38.7891 18.7041C38.2324 18.1279 37.7539 17.4932 37.3535 16.7998C36.9629 16.0967 36.6553 15.3447 36.4307 14.5439C36.2158 13.7432 36.1084 12.9082 36.1084 12.0391C36.1084 11.1895 36.2109 10.3594 36.416 9.54883C36.6211 8.72852 36.9141 7.95703 37.2949 7.23438C37.6855 6.51172 38.1543 5.84766 38.7012 5.24219C39.248 4.63672 39.8584 4.11426 40.5322 3.6748C41.2158 3.23535 41.9531 2.89355 42.7441 2.64941C43.5352 2.40527 44.3701 2.2832 45.249 2.2832C46.665 2.2832 47.9541 2.50293 49.1162 2.94238C50.2881 3.38184 51.2842 4.01172 52.1045 4.83203C52.9346 5.64258 53.5742 6.62891 54.0234 7.79102C54.4824 8.94336 54.7119 10.2324 54.7119 11.6582ZM48.208 12.0391C48.208 11.6191 48.1445 11.2139 48.0176 10.8232C47.9004 10.4229 47.7246 10.0713 47.4902 9.76855C47.2559 9.45605 46.9629 9.20703 46.6113 9.02148C46.2695 8.82617 45.874 8.72852 45.4248 8.72852C44.9658 8.72852 44.5557 8.81152 44.1943 8.97754C43.833 9.14355 43.5205 9.37305 43.2568 9.66602C43.0029 9.94922 42.8076 10.2861 42.6709 10.6768C42.5342 11.0576 42.4658 11.4629 42.4658 11.8926C42.4658 12.3027 42.5244 12.7129 42.6416 13.123C42.7588 13.5332 42.9346 13.9043 43.1689 14.2363C43.4033 14.5684 43.6914 14.8369 44.0332 15.042C44.3848 15.2471 44.79 15.3496 45.249 15.3496C45.708 15.3496 46.1182 15.2617 46.4795 15.0859C46.8506 14.9004 47.1631 14.6562 47.417 14.3535C47.6709 14.041 47.8662 13.6846 48.0029 13.2842C48.1396 12.8838 48.208 12.4688 48.208 12.0391Z" fill="black"/>
<path d="M72.334 10.3691C72.334 11.7363 72.1582 12.9717 71.8066 14.0752C71.4551 15.1689 70.9619 16.1455 70.3271 17.0049C69.7021 17.8545 68.9551 18.5869 68.0859 19.2021C67.2168 19.8174 66.2646 20.3252 65.2295 20.7256C64.1943 21.1162 63.0908 21.4092 61.9189 21.6045C60.7568 21.79 59.5605 21.8828 58.3301 21.8828C57.8711 21.8828 57.4219 21.873 56.9824 21.8535C56.543 21.8242 56.0938 21.7852 55.6348 21.7363L56.0449 2.07812C57.1191 1.73633 58.2227 1.49707 59.3555 1.36035C60.498 1.21387 61.6309 1.14062 62.7539 1.14062C64.1504 1.14062 65.4346 1.35059 66.6064 1.77051C67.7783 2.19043 68.7891 2.7959 69.6387 3.58691C70.4883 4.37793 71.1475 5.34473 71.6162 6.4873C72.0947 7.62988 72.334 8.92383 72.334 10.3691ZM66.3281 11.3066C66.3379 10.7793 66.2793 10.2715 66.1523 9.7832C66.0352 9.29492 65.835 8.86523 65.5518 8.49414C65.2783 8.11328 64.9268 7.81055 64.4971 7.58594C64.0674 7.35156 63.5547 7.22461 62.959 7.20508L62.373 16.2871C62.959 16.1992 63.4912 16.0088 63.9697 15.7158C64.4482 15.4131 64.8584 15.0469 65.2002 14.6172C65.5518 14.1777 65.8203 13.6943 66.0059 13.167C66.2012 12.6299 66.3086 12.0781 66.3281 11.5117V11.3066Z" fill="black"/>
<path d="M90.7471 5.71094C90.7471 6.43359 90.7129 7.22949 90.6445 8.09863C90.5762 8.96777 90.4639 9.86621 90.3076 10.7939C90.1514 11.7217 89.9463 12.6641 89.6924 13.6211C89.4482 14.5684 89.1406 15.4814 88.7695 16.3604C88.3984 17.2393 87.9639 18.0645 87.4658 18.8359C86.9775 19.5977 86.4111 20.2666 85.7666 20.8428C85.1318 21.4092 84.4189 21.8535 83.6279 22.1758C82.8369 22.5078 81.958 22.6738 80.9912 22.6738C79.8584 22.6738 78.8721 22.4883 78.0322 22.1172C77.2021 21.7559 76.4893 21.2676 75.8936 20.6523C75.2979 20.0273 74.8096 19.3047 74.4287 18.4844C74.0479 17.6543 73.75 16.7803 73.5352 15.8623C73.3203 14.9346 73.1689 13.9922 73.0811 13.0352C73.0029 12.0684 72.9639 11.1406 72.9639 10.252C72.9639 8.88477 73.0322 7.52246 73.1689 6.16504C73.3057 4.79785 73.501 3.43555 73.7549 2.07812L80.6104 2.3418C80.3467 3.875 80.1172 5.41797 79.9219 6.9707C79.7363 8.51367 79.6436 10.0664 79.6436 11.6289C79.6436 11.7949 79.6484 12.0439 79.6582 12.376C79.6777 12.6982 79.707 13.0645 79.7461 13.4746C79.7852 13.875 79.8389 14.29 79.9072 14.7197C79.9854 15.1396 80.0879 15.5254 80.2148 15.877C80.3418 16.2285 80.4932 16.5166 80.6689 16.7412C80.8545 16.9658 81.0693 17.0781 81.3135 17.0781C81.5967 17.0781 81.8506 16.9463 82.0752 16.6826C82.2998 16.4092 82.4951 16.0479 82.6611 15.5986C82.8369 15.1494 82.9883 14.6318 83.1152 14.0459C83.2422 13.46 83.3496 12.8496 83.4375 12.2148C83.5254 11.5801 83.5938 10.9453 83.6426 10.3105C83.7012 9.67578 83.7451 9.08496 83.7744 8.53809C83.8135 7.99121 83.8379 7.50781 83.8477 7.08789C83.8574 6.66797 83.8623 6.35547 83.8623 6.15039C83.8623 5.38867 83.8477 4.63184 83.8184 3.87988C83.7988 3.11816 83.7646 2.36133 83.7158 1.60938H90.5713C90.6885 2.95703 90.7471 4.32422 90.7471 5.71094Z" fill="black"/>
<path d="M106.26 1.4043L105.439 7.58594C105.156 7.50781 104.873 7.4541 104.59 7.4248C104.307 7.39551 104.023 7.38086 103.74 7.38086C103.018 7.38086 102.329 7.47852 101.675 7.67383C101.021 7.85938 100.439 8.14746 99.9316 8.53809C99.4336 8.92871 99.0332 9.41699 98.7305 10.0029C98.4375 10.5889 98.291 11.2773 98.291 12.0684C98.291 12.5762 98.3691 13.0156 98.5254 13.3867C98.6914 13.7578 98.9209 14.0654 99.2139 14.3096C99.5068 14.5537 99.8535 14.7344 100.254 14.8516C100.654 14.9688 101.094 15.0273 101.572 15.0273C101.934 15.0273 102.31 14.9883 102.7 14.9102C103.091 14.832 103.477 14.7295 103.857 14.6025C104.238 14.4756 104.609 14.3291 104.971 14.1631C105.332 13.9971 105.664 13.8262 105.967 13.6504L105.381 20.5352C105 20.7305 104.585 20.9062 104.136 21.0625C103.696 21.209 103.242 21.3408 102.773 21.458C102.305 21.5654 101.836 21.6484 101.367 21.707C100.898 21.7656 100.449 21.7949 100.02 21.7949C98.7793 21.7949 97.6221 21.5654 96.5479 21.1064C95.4736 20.6475 94.541 20.0176 93.75 19.2168C92.959 18.416 92.334 17.4736 91.875 16.3896C91.4258 15.2959 91.2012 14.1191 91.2012 12.8594C91.2012 11.1895 91.4404 9.61719 91.9189 8.14258C92.3975 6.6582 93.1006 5.35938 94.0283 4.24609C94.9561 3.13281 96.1035 2.25391 97.4707 1.60938C98.8477 0.964844 100.43 0.642578 102.217 0.642578C102.891 0.642578 103.579 0.696289 104.282 0.803711C104.995 0.911133 105.654 1.11133 106.26 1.4043Z" fill="black"/>
<path d="M122.666 1.05273L122.52 7.26367L118.154 7.43945L117.041 21.3262L110.859 21.6484L110.889 7.76172L106.523 7.99609L106.699 1.08203L122.666 1.05273Z" fill="black"/>
</svg>
