<svg width="101" height="23" viewBox="0 0 101 23" fill="none" xmlns="http://www.w3.org/2000/svg">
<path d="M15.7471 14.207C15.7471 15.5449 15.5127 16.7168 15.0439 17.7227C14.585 18.7188 13.9502 19.5488 13.1396 20.2129C12.3389 20.877 11.3965 21.375 10.3125 21.707C9.23828 22.0391 8.08105 22.2051 6.84082 22.2051C6.3623 22.2051 5.83496 22.1416 5.25879 22.0146C4.69238 21.8877 4.11621 21.7314 3.53027 21.5459C2.94434 21.3506 2.37793 21.1455 1.83105 20.9307C1.29395 20.7061 0.81543 20.4961 0.395508 20.3008L1.04004 14.2656C1.87012 14.7637 2.78809 15.1445 3.79395 15.4082C4.80957 15.6621 5.80566 15.7891 6.78223 15.7891C6.96777 15.7891 7.19238 15.7842 7.45605 15.7744C7.71973 15.7549 7.96875 15.7109 8.20312 15.6426C8.44727 15.5645 8.65234 15.4521 8.81836 15.3057C8.98438 15.1592 9.06738 14.9492 9.06738 14.6758C9.06738 14.4902 9.00879 14.334 8.8916 14.207C8.77441 14.0703 8.62305 13.9629 8.4375 13.8848C8.25195 13.7969 8.04199 13.7334 7.80762 13.6943C7.57324 13.6455 7.34375 13.6113 7.11914 13.5918C6.89453 13.5723 6.68457 13.5625 6.48926 13.5625C6.29395 13.5625 6.1377 13.5625 6.02051 13.5625C5.18066 13.5625 4.41406 13.416 3.7207 13.123C3.03711 12.8301 2.44629 12.4248 1.94824 11.9072C1.45996 11.3799 1.0791 10.7598 0.805664 10.0469C0.532227 9.32422 0.395508 8.54297 0.395508 7.70312C0.395508 6.55078 0.625 5.52051 1.08398 4.6123C1.55273 3.69434 2.17285 2.91797 2.94434 2.2832C3.72559 1.63867 4.61914 1.14551 5.625 0.803711C6.63086 0.461914 7.6709 0.291016 8.74512 0.291016C9.22363 0.291016 9.7168 0.310547 10.2246 0.349609C10.7324 0.378906 11.2354 0.4375 11.7334 0.525391C12.2412 0.613281 12.7344 0.725586 13.2129 0.862305C13.6914 0.999023 14.1455 1.16992 14.5752 1.375L14.0186 7.32227C13.3545 7.09766 12.6562 6.91211 11.9238 6.76562C11.2012 6.60938 10.4932 6.53125 9.7998 6.53125C9.67285 6.53125 9.50684 6.53613 9.30176 6.5459C9.10645 6.5459 8.89648 6.56055 8.67188 6.58984C8.45703 6.60938 8.2373 6.64355 8.0127 6.69238C7.78809 6.74121 7.58789 6.80957 7.41211 6.89746C7.23633 6.97559 7.09473 7.08301 6.9873 7.21973C6.87988 7.35645 6.83105 7.51758 6.84082 7.70312C6.85059 7.91797 6.92871 8.09375 7.0752 8.23047C7.23145 8.35742 7.42676 8.45996 7.66113 8.53809C7.90527 8.60645 8.16895 8.65527 8.45215 8.68457C8.74512 8.71387 9.0332 8.7334 9.31641 8.74316C9.59961 8.74316 9.86328 8.74316 10.1074 8.74316C10.3516 8.7334 10.5518 8.73828 10.708 8.75781C11.4893 8.80664 12.1924 8.97266 12.8174 9.25586C13.4424 9.53906 13.9697 9.91504 14.3994 10.3838C14.8389 10.8525 15.1709 11.4141 15.3955 12.0684C15.6299 12.7129 15.7471 13.4258 15.7471 14.207Z" fill="black"/>
<path d="M24.5947 1.375L22.9834 21.3262L16.8018 21.6484V1.78516L24.5947 1.375Z" fill="black"/>
<path d="M43.1543 19.0117C42.6953 19.5879 42.1289 20.0908 41.4551 20.5205C40.7812 20.9502 40.0586 21.3066 39.2871 21.5898C38.5156 21.873 37.7246 22.083 36.9141 22.2197C36.1035 22.3662 35.332 22.4395 34.5996 22.4395C33.1836 22.4395 31.8799 22.1855 30.6885 21.6777C29.4971 21.1699 28.4668 20.4717 27.5977 19.583C26.7383 18.6846 26.0645 17.6299 25.5762 16.4189C25.0879 15.208 24.8438 13.9043 24.8438 12.5078C24.8438 11.4434 24.9658 10.4033 25.21 9.3877C25.4541 8.3623 25.8008 7.40039 26.25 6.50195C26.709 5.59375 27.2656 4.76367 27.9199 4.01172C28.5742 3.25 29.3164 2.5957 30.1465 2.04883C30.9766 1.50195 31.8848 1.07715 32.8711 0.774414C33.8574 0.47168 34.9121 0.320312 36.0352 0.320312C36.4551 0.320312 36.9043 0.339844 37.3828 0.378906C37.8613 0.408203 38.335 0.466797 38.8037 0.554688C39.2822 0.632812 39.7461 0.745117 40.1953 0.891602C40.6445 1.03809 41.0547 1.21875 41.4258 1.43359L41.0156 7.0293C40.4688 6.82422 39.9023 6.6875 39.3164 6.61914C38.7402 6.54102 38.1738 6.50195 37.6172 6.50195C36.8359 6.50195 36.1035 6.62402 35.4199 6.86816C34.7461 7.10254 34.1553 7.44434 33.6475 7.89355C33.1494 8.34277 32.7539 8.88965 32.4609 9.53418C32.168 10.1787 32.0215 10.9062 32.0215 11.7168C32.0215 12.2246 32.0898 12.7178 32.2266 13.1963C32.3633 13.665 32.5684 14.085 32.8418 14.4561C33.125 14.8174 33.4717 15.1104 33.8818 15.335C34.3018 15.5596 34.7852 15.6719 35.332 15.6719C35.7031 15.6719 36.084 15.623 36.4746 15.5254C36.875 15.4277 37.2168 15.2617 37.5 15.0273L37.5586 13.8848L34.043 13.8262L34.2188 9.43164C35.6738 9.38281 37.1289 9.34375 38.584 9.31445C40.0391 9.27539 41.5039 9.22656 42.9785 9.16797L43.1543 19.0117Z" fill="black"/>
<path d="M64.2041 0.994141L63.1494 20.8574L55.4736 21.5605L51.3721 10.9258L50.7275 21.7656H44.1357L44.6631 0.994141L51.9873 0.642578L57.0557 11.1895L57.29 1.22852L64.2041 0.994141Z" fill="black"/>
<path d="M79.1748 1.375L77.5635 21.3262L71.3818 21.6484V1.78516L79.1748 1.375Z" fill="black"/>
<path d="M100.122 0.994141L99.0674 20.8574L91.3916 21.5605L87.29 10.9258L86.6455 21.7656H80.0537L80.5811 0.994141L87.9053 0.642578L92.9736 11.1895L93.208 1.22852L100.122 0.994141Z" fill="black"/>
</svg>
